<?xml version="1.0" encoding="UTF-8" standalone="no"?>
<!DOCTYPE svg PUBLIC "-//W3C//DTD SVG 1.1//EN"
 "http://www.w3.org/Graphics/SVG/1.1/DTD/svg11.dtd">
<!-- Generated by graphviz version 14.1.2 (20260124.0452)
 -->
<!-- Title: Ecommerce Analytics Pipeline Pages: 1 -->
<svg width="5739pt" height="2376pt"
 viewBox="0.00 0.00 5739.00 2376.00" xmlns="http://www.w3.org/2000/svg" xmlns:xlink="http://www.w3.org/1999/xlink">
<g id="graph0" class="graph" transform="scale(2.08333 2.08333) rotate(0) translate(86.4 1053.9)">
<title>Ecommerce Analytics Pipeline</title>
<polygon fill="#f8fafc" stroke="none" points="-86.4,86.4 -86.4,-1053.9 2668.35,-1053.9 2668.35,86.4 -86.4,86.4"/>
<text xml:space="preserve" text-anchor="start" x="1081.35" y="-937.9" font-family="Helvetica Neue Bold" font-weight="bold" font-size="28.00" fill="#2d3436">Ecommerce Analytics Pipeline</text>
<g id="clust1" class="cluster">
<title>cluster_Docker</title>
<path fill="#e5f5fd" stroke="#aeb6be" d="M12,-658C12,-658 142.25,-658 142.25,-658 148.25,-658 154.25,-664 154.25,-670 154.25,-670 154.25,-905 154.25,-905 154.25,-911 148.25,-917 142.25,-917 142.25,-917 12,-917 12,-917 6,-917 0,-911 0,-905 0,-905 0,-670 0,-670 0,-664 6,-658 12,-658"/>
<text xml:space="preserve" text-anchor="middle" x="39.5" y="-895.9" font-family="Helvetica Neue Bold" font-size="18.00" fill="#2d3436" font-weight="bold">Docker</text>
</g>
<g id="clust2" class="cluster">
<title>cluster_Orchestration</title>
<path fill="#ebf3e7" stroke="#aeb6be" d="M20,-666C20,-666 134.25,-666 134.25,-666 140.25,-666 146.25,-672 146.25,-678 146.25,-678 146.25,-866 146.25,-866 146.25,-872 140.25,-878 134.25,-878 134.25,-878 20,-878 20,-878 14,-878 8,-872 8,-866 8,-866 8,-678 8,-678 8,-672 14,-666 20,-666"/>
<text xml:space="preserve" text-anchor="middle" x="77.12" y="-856.9" font-family="Helvetica Neue Bold" font-size="18.00" fill="#2d3436" font-weight="bold">Orchestration</text>
</g>
<g id="clust3" class="cluster">
<title>cluster_Ingestion</title>
<path fill="#e5f5fd" stroke="#aeb6be" d="M30.22,-423C30.22,-423 336.05,-423 336.05,-423 342.05,-423 348.05,-429 348.05,-435 348.05,-435 348.05,-594 348.05,-594 348.05,-600 342.05,-606 336.05,-606 336.05,-606 30.22,-606 30.22,-606 24.22,-606 18.22,-600 18.22,-594 18.22,-594 18.22,-435 18.22,-435 18.22,-429 24.22,-423 30.22,-423"/>
<text xml:space="preserve" text-anchor="middle" x="69.35" y="-584.9" font-family="Helvetica Neue Bold" font-size="18.00" fill="#2d3436" font-weight="bold">Ingestion</text>
</g>
<g id="clust4" class="cluster">
<title>cluster_AWS Glue ETL</title>
<path fill="#e5f5fd" stroke="#aeb6be" d="M445.05,-228C445.05,-228 941.45,-228 941.45,-228 947.45,-228 953.45,-234 953.45,-240 953.45,-240 953.45,-789 953.45,-789 953.45,-795 947.45,-801 941.45,-801 941.45,-801 445.05,-801 445.05,-801 439.05,-801 433.05,-795 433.05,-789 433.05,-789 433.05,-240 433.05,-240 433.05,-234 439.05,-228 445.05,-228"/>
<text xml:space="preserve" text-anchor="middle" x="504.05" y="-779.9" font-family="Helvetica Neue Bold" font-size="18.00" fill="#2d3436" font-weight="bold">AWS Glue ETL</text>
</g>
<g id="clust5" class="cluster">
<title>cluster_Catalog &amp; Query</title>
<path fill="#e5f5fd" stroke="#aeb6be" d="M848.65,-8C848.65,-8 1345.05,-8 1345.05,-8 1351.05,-8 1357.05,-14 1357.05,-20 1357.05,-20 1357.05,-208 1357.05,-208 1357.05,-214 1351.05,-220 1345.05,-220 1345.05,-220 848.65,-220 848.65,-220 842.65,-220 836.65,-214 836.65,-208 836.65,-208 836.65,-20 836.65,-20 836.65,-14 842.65,-8 848.65,-8"/>
<text xml:space="preserve" text-anchor="middle" x="917.77" y="-198.9" font-family="Helvetica Neue Bold" font-size="18.00" fill="#2d3436" font-weight="bold">Catalog &amp; Query</text>
</g>
<g id="clust6" class="cluster">
<title>cluster_Validation &amp; Load</title>
<path fill="#e5f5fd" stroke="#aeb6be" d="M1454.05,-8C1454.05,-8 1748.65,-8 1748.65,-8 1754.65,-8 1760.65,-14 1760.65,-20 1760.65,-20 1760.65,-208 1760.65,-208 1760.65,-214 1754.65,-220 1748.65,-220 1748.65,-220 1454.05,-220 1454.05,-220 1448.05,-220 1442.05,-214 1442.05,-208 1442.05,-208 1442.05,-20 1442.05,-20 1442.05,-14 1448.05,-8 1454.05,-8"/>
<text xml:space="preserve" text-anchor="middle" x="1529.17" y="-198.9" font-family="Helvetica Neue Bold" font-size="18.00" fill="#2d3436" font-weight="bold">Validation &amp; Load</text>
</g>
<g id="clust7" class="cluster">
<title>cluster_Transformation</title>
<path fill="#e5f5fd" stroke="#aeb6be" d="M1857.65,-8C1857.65,-8 2354.05,-8 2354.05,-8 2360.05,-8 2366.05,-14 2366.05,-20 2366.05,-20 2366.05,-208 2366.05,-208 2366.05,-214 2360.05,-220 2354.05,-220 2354.05,-220 1857.65,-220 1857.65,-220 1851.65,-220 1845.65,-214 1845.65,-208 1845.65,-208 1845.65,-20 1845.65,-20 1845.65,-14 1851.65,-8 1857.65,-8"/>
<text xml:space="preserve" text-anchor="middle" x="1922.65" y="-198.9" font-family="Helvetica Neue Bold" font-size="18.00" fill="#2d3436" font-weight="bold">Transformation</text>
</g>
<g id="clust8" class="cluster">
<title>cluster_Visualization</title>
<path fill="#e5f5fd" stroke="#aeb6be" d="M2463.05,-23C2463.05,-23 2569.05,-23 2569.05,-23 2575.05,-23 2581.05,-29 2581.05,-35 2581.05,-35 2581.05,-194 2581.05,-194 2581.05,-200 2575.05,-206 2569.05,-206 2569.05,-206 2463.05,-206 2463.05,-206 2457.05,-206 2451.05,-200 2451.05,-194 2451.05,-194 2451.05,-35 2451.05,-35 2451.05,-29 2457.05,-23 2463.05,-23"/>
<text xml:space="preserve" text-anchor="middle" x="2516.05" y="-184.9" font-family="Helvetica Neue Bold" font-size="18.00" fill="#2d3436" font-weight="bold">Visualization</text>
</g>
<!-- efa57c33b80c4db79e9aa67faa07e0b2 -->
<g id="node1" class="node">
<title>efa57c33b80c4db79e9aa67faa07e0b2</title>
<image xlink:href="D:\Projects\ecommerce-analytics\venv\Lib\site-packages\resources/onprem/workflow\airflow.png" width="100.8px" height="100.8px" preserveAspectRatio="xMinYMin meet" x="26.225" y="-807.4"/>
<text xml:space="preserve" text-anchor="middle" x="76.62" y="-691.85" font-family="Arial Bold" font-size="13.00" fill="#2d3436" font-weight="bold">Apache</text>
<text xml:space="preserve" text-anchor="middle" x="76.62" y="-676.85" font-family="Arial Bold" font-size="13.00" fill="#2d3436" font-weight="bold">Airflow</text>
</g>
<!-- 7eb36a6f1b80435fa81f579e302587c6 -->
<g id="node2" class="node">
<title>7eb36a6f1b80435fa81f579e302587c6</title>
<image xlink:href="D:/Projects/ecommerce-analytics/docs/icons/python.png" width="100.8px" height="100.8px" preserveAspectRatio="xMinYMin meet" x="26.225" y="-549.4"/>
<text xml:space="preserve" text-anchor="middle" x="76.62" y="-433.25" font-family="Arial Bold" font-size="13.00" fill="#2d3436" font-weight="bold">generate_data.py</text>
</g>
<!-- efa57c33b80c4db79e9aa67faa07e0b2&#45;&gt;7eb36a6f1b80435fa81f579e302587c6 -->
<g id="edge1" class="edge">
<title>efa57c33b80c4db79e9aa67faa07e0b2&#45;&gt;7eb36a6f1b80435fa81f579e302587c6</title>
<path fill="none" stroke="#6366f1" stroke-dasharray="5,2" d="M60.05,-674.3C60.05,-674.3 60.05,-578.51 60.05,-578.51"/>
<polygon fill="#6366f1" stroke="#6366f1" points="63.55,-578.51 60.05,-568.51 56.55,-578.51 63.55,-578.51"/>
</g>
<!-- aa18638359c5439d875163baeb6a0f73 -->
<g id="node4" class="node">
<title>aa18638359c5439d875163baeb6a0f73</title>
<image xlink:href="D:\Projects\ecommerce-analytics\venv\Lib\site-packages\resources/aws/analytics\glue.png" width="100.8px" height="100.8px" preserveAspectRatio="xMinYMin meet" x="441.05" y="-354.4"/>
<text xml:space="preserve" text-anchor="middle" x="491.45" y="-238.25" font-family="Arial Bold" font-size="13.00" fill="#2d3436" font-weight="bold">customers</text>
</g>
<!-- efa57c33b80c4db79e9aa67faa07e0b2&#45;&gt;aa18638359c5439d875163baeb6a0f73 -->
<g id="edge2" class="edge">
<title>efa57c33b80c4db79e9aa67faa07e0b2&#45;&gt;aa18638359c5439d875163baeb6a0f73</title>
<path fill="none" stroke="#6366f1" stroke-dasharray="5,2" d="M126.79,-703.6C215.56,-703.6 391.05,-703.6 391.05,-703.6 391.05,-703.6 391.05,-326.8 391.05,-326.8 391.05,-326.8 429.74,-326.8 429.74,-326.8"/>
<polygon fill="#6366f1" stroke="#6366f1" points="429.74,-330.3 439.74,-326.8 429.74,-323.3 429.74,-330.3"/>
</g>
<!-- 9076174e68174c96969be53daa9fb546 -->
<g id="node5" class="node">
<title>9076174e68174c96969be53daa9fb546</title>
<image xlink:href="D:\Projects\ecommerce-analytics\venv\Lib\site-packages\resources/aws/analytics\glue.png" width="100.8px" height="100.8px" preserveAspectRatio="xMinYMin meet" x="441.05" y="-549.4"/>
<text xml:space="preserve" text-anchor="middle" x="491.45" y="-433.25" font-family="Arial Bold" font-size="13.00" fill="#2d3436" font-weight="bold">products</text>
</g>
<!-- efa57c33b80c4db79e9aa67faa07e0b2&#45;&gt;9076174e68174c96969be53daa9fb546 -->
<g id="edge3" class="edge">
<title>efa57c33b80c4db79e9aa67faa07e0b2&#45;&gt;9076174e68174c96969be53daa9fb546</title>
<path fill="none" stroke="#6366f1" stroke-dasharray="5,2" d="M93.05,-674.4C93.05,-635.07 93.05,-596.5 93.05,-596.5 93.05,-596.5 491.05,-596.5 491.05,-596.5 491.05,-596.5 491.05,-578.76 491.05,-578.76"/>
<polygon fill="#6366f1" stroke="#6366f1" points="494.55,-578.76 491.05,-568.76 487.55,-578.76 494.55,-578.76"/>
</g>
<!-- 0db9c1b0e1ac45d59be950856317e361 -->
<g id="node6" class="node">
<title>0db9c1b0e1ac45d59be950856317e361</title>
<image xlink:href="D:\Projects\ecommerce-analytics\venv\Lib\site-packages\resources/aws/analytics\glue.png" width="100.8px" height="100.8px" preserveAspectRatio="xMinYMin meet" x="441.05" y="-744.4"/>
<text xml:space="preserve" text-anchor="middle" x="491.45" y="-628.25" font-family="Arial Bold" font-size="13.00" fill="#2d3436" font-weight="bold">orders</text>
</g>
<!-- efa57c33b80c4db79e9aa67faa07e0b2&#45;&gt;0db9c1b0e1ac45d59be950856317e361 -->
<g id="edge4" class="edge">
<title>efa57c33b80c4db79e9aa67faa07e0b2&#45;&gt;0db9c1b0e1ac45d59be950856317e361</title>
<path fill="none" stroke="#6366f1" stroke-dasharray="5,2" d="M126.66,-733C126.66,-733 429.72,-733 429.72,-733"/>
<polygon fill="#6366f1" stroke="#6366f1" points="429.72,-736.5 439.72,-733 429.72,-729.5 429.72,-736.5"/>
</g>
<!-- 2b7d2cfdc1db4e1cb8c35acff5e32430 -->
<g id="node12" class="node">
<title>2b7d2cfdc1db4e1cb8c35acff5e32430</title>
<image xlink:href="D:/Projects/ecommerce-analytics/docs/icons/python.png" width="100.8px" height="100.8px" preserveAspectRatio="xMinYMin meet" x="1450.05" y="-149.4"/>
<text xml:space="preserve" text-anchor="middle" x="1500.45" y="-33.25" font-family="Arial Bold" font-size="13.00" fill="#2d3436" font-weight="bold">validate.py</text>
</g>
<!-- efa57c33b80c4db79e9aa67faa07e0b2&#45;&gt;2b7d2cfdc1db4e1cb8c35acff5e32430 -->
<g id="edge5" class="edge">
<title>efa57c33b80c4db79e9aa67faa07e0b2&#45;&gt;2b7d2cfdc1db4e1cb8c35acff5e32430</title>
<path fill="none" stroke="#6366f1" stroke-dasharray="5,2" d="M126.87,-788.2C379.62,-788.2 1500.05,-788.2 1500.05,-788.2 1500.05,-788.2 1500.05,-178.8 1500.05,-178.8"/>
<polygon fill="#6366f1" stroke="#6366f1" points="1503.55,-178.8 1500.05,-168.8 1496.55,-178.8 1503.55,-178.8"/>
</g>
<!-- 55fd709420ec410aba2c3f976dd314d5 -->
<g id="node14" class="node">
<title>55fd709420ec410aba2c3f976dd314d5</title>
<image xlink:href="D:/Projects/ecommerce-analytics/docs/icons/dbt.png" width="100.8px" height="93.6214px" preserveAspectRatio="xMinYMin meet" x="1853.65" y="-145.811"/>
<text xml:space="preserve" text-anchor="middle" x="1904.05" y="-33.85" font-family="Arial Bold" font-size="13.00" fill="#2d3436" font-weight="bold">dbt staging</text>
<text xml:space="preserve" text-anchor="middle" x="1904.05" y="-18.85" font-family="Arial Bold" font-size="13.00" fill="#2d3436" font-weight="bold">4 views</text>
</g>
<!-- efa57c33b80c4db79e9aa67faa07e0b2&#45;&gt;55fd709420ec410aba2c3f976dd314d5 -->
<g id="edge6" class="edge">
<title>efa57c33b80c4db79e9aa67faa07e0b2&#45;&gt;55fd709420ec410aba2c3f976dd314d5</title>
<path fill="none" stroke="#6366f1" stroke-dasharray="5,2" d="M126.93,-814C420.94,-814 1904.05,-814 1904.05,-814 1904.05,-814 1904.05,-193.23 1904.05,-193.23"/>
<polygon fill="#6366f1" stroke="#6366f1" points="1907.55,-193.23 1904.05,-183.23 1900.55,-193.23 1907.55,-193.23"/>
</g>
<!-- 8b0a7b3c0f0b4866a4fb9d6bd765c170 -->
<g id="node3" class="node">
<title>8b0a7b3c0f0b4866a4fb9d6bd765c170</title>
<image xlink:href="D:\Projects\ecommerce-analytics\venv\Lib\site-packages\resources/aws/storage\simple-storage-service-s3.png" width="100.8px" height="100.8px" preserveAspectRatio="xMinYMin meet" x="239.25" y="-549.4"/>
<text xml:space="preserve" text-anchor="middle" x="289.65" y="-433.25" font-family="Arial Bold" font-size="13.00" fill="#2d3436" font-weight="bold">S3 &#160;raw/</text>
</g>
<!-- 7eb36a6f1b80435fa81f579e302587c6&#45;&gt;8b0a7b3c0f0b4866a4fb9d6bd765c170 -->
<g id="edge7" class="edge">
<title>7eb36a6f1b80435fa81f579e302587c6&#45;&gt;8b0a7b3c0f0b4866a4fb9d6bd765c170</title>
<path fill="none" stroke="#7b8894" d="M126.84,-499C126.84,-499 227.89,-499 227.89,-499"/>
<polygon fill="#7b8894" stroke="#7b8894" points="227.89,-502.5 237.89,-499 227.89,-495.5 227.89,-502.5"/>
</g>
<!-- 8b0a7b3c0f0b4866a4fb9d6bd765c170&#45;&gt;aa18638359c5439d875163baeb6a0f73 -->
<g id="edge8" class="edge">
<title>8b0a7b3c0f0b4866a4fb9d6bd765c170&#45;&gt;aa18638359c5439d875163baeb6a0f73</title>
<path fill="none" stroke="#7b8894" d="M290.05,-430.68C290.05,-366.81 290.05,-281.2 290.05,-281.2 290.05,-281.2 429.63,-281.2 429.63,-281.2"/>
<polygon fill="#7b8894" stroke="#7b8894" points="429.63,-284.7 439.63,-281.2 429.63,-277.7 429.63,-284.7"/>
</g>
<!-- 8b0a7b3c0f0b4866a4fb9d6bd765c170&#45;&gt;9076174e68174c96969be53daa9fb546 -->
<g id="edge9" class="edge">
<title>8b0a7b3c0f0b4866a4fb9d6bd765c170&#45;&gt;9076174e68174c96969be53daa9fb546</title>
<path fill="none" stroke="#7b8894" d="M339.79,-499C339.79,-499 429.7,-499 429.7,-499"/>
<polygon fill="#7b8894" stroke="#7b8894" points="429.7,-502.5 439.7,-499 429.7,-495.5 429.7,-502.5"/>
</g>
<!-- 8b0a7b3c0f0b4866a4fb9d6bd765c170&#45;&gt;0db9c1b0e1ac45d59be950856317e361 -->
<g id="edge10" class="edge">
<title>8b0a7b3c0f0b4866a4fb9d6bd765c170&#45;&gt;0db9c1b0e1ac45d59be950856317e361</title>
<path fill="none" stroke="#7b8894" d="M290.05,-567.39C290.05,-607.31 290.05,-649.9 290.05,-649.9 290.05,-649.9 429.63,-649.9 429.63,-649.9"/>
<polygon fill="#7b8894" stroke="#7b8894" points="429.63,-653.4 439.63,-649.9 429.63,-646.4 429.63,-653.4"/>
</g>
<!-- 82833dd6bdcc45499078446f7b6a90c8 -->
<g id="node7" class="node">
<title>82833dd6bdcc45499078446f7b6a90c8</title>
<image xlink:href="D:\Projects\ecommerce-analytics\venv\Lib\site-packages\resources/aws/analytics\glue.png" width="100.8px" height="100.8px" preserveAspectRatio="xMinYMin meet" x="642.85" y="-435.4"/>
<text xml:space="preserve" text-anchor="middle" x="693.25" y="-319.25" font-family="Arial Bold" font-size="13.00" fill="#2d3436" font-weight="bold">order_items</text>
</g>
<!-- aa18638359c5439d875163baeb6a0f73&#45;&gt;82833dd6bdcc45499078446f7b6a90c8 -->
<g id="edge11" class="edge">
<title>aa18638359c5439d875163baeb6a0f73&#45;&gt;82833dd6bdcc45499078446f7b6a90c8</title>
<path fill="none" stroke="#7b8894" d="M541.59,-344.5C541.59,-344.5 631.5,-344.5 631.5,-344.5"/>
<polygon fill="#7b8894" stroke="#7b8894" points="631.5,-348 641.5,-344.5 631.5,-341 631.5,-348"/>
</g>
<!-- 6de65cf8c634482aa4035f26a0a40086 -->
<g id="node8" class="node">
<title>6de65cf8c634482aa4035f26a0a40086</title>
<image xlink:href="D:\Projects\ecommerce-analytics\venv\Lib\site-packages\resources/aws/management\cloudwatch.png" width="100.8px" height="100.8px" preserveAspectRatio="xMinYMin meet" x="844.65" y="-435.4"/>
<text xml:space="preserve" text-anchor="middle" x="895.05" y="-319.85" font-family="Arial Bold" font-size="13.00" fill="#2d3436" font-weight="bold">CloudWatch</text>
<text xml:space="preserve" text-anchor="middle" x="895.05" y="-304.85" font-family="Arial Bold" font-size="13.00" fill="#2d3436" font-weight="bold">Metrics</text>
</g>
<!-- aa18638359c5439d875163baeb6a0f73&#45;&gt;6de65cf8c634482aa4035f26a0a40086 -->
<g id="edge15" class="edge">
<title>aa18638359c5439d875163baeb6a0f73&#45;&gt;6de65cf8c634482aa4035f26a0a40086</title>
<path fill="none" stroke="#9ca3af" stroke-dasharray="5,2" d="M541.75,-309.4C541.75,-309.4 833.24,-309.4 833.24,-309.4"/>
<polygon fill="#9ca3af" stroke="#9ca3af" points="833.24,-312.9 843.24,-309.4 833.24,-305.9 833.24,-312.9"/>
</g>
<!-- 9076174e68174c96969be53daa9fb546&#45;&gt;82833dd6bdcc45499078446f7b6a90c8 -->
<g id="edge12" class="edge">
<title>9076174e68174c96969be53daa9fb546&#45;&gt;82833dd6bdcc45499078446f7b6a90c8</title>
<path fill="none" stroke="#7b8894" d="M541.59,-442C541.59,-442 631.5,-442 631.5,-442"/>
<polygon fill="#7b8894" stroke="#7b8894" points="631.5,-445.5 641.5,-442 631.5,-438.5 631.5,-445.5"/>
</g>
<!-- 9076174e68174c96969be53daa9fb546&#45;&gt;6de65cf8c634482aa4035f26a0a40086 -->
<g id="edge16" class="edge">
<title>9076174e68174c96969be53daa9fb546&#45;&gt;6de65cf8c634482aa4035f26a0a40086</title>
<path fill="none" stroke="#9ca3af" stroke-dasharray="5,2" d="M541.75,-460.6C541.75,-460.6 833.24,-460.6 833.24,-460.6"/>
<polygon fill="#9ca3af" stroke="#9ca3af" points="833.24,-464.1 843.24,-460.6 833.24,-457.1 833.24,-464.1"/>
</g>
<!-- 0db9c1b0e1ac45d59be950856317e361&#45;&gt;82833dd6bdcc45499078446f7b6a90c8 -->
<g id="edge13" class="edge">
<title>0db9c1b0e1ac45d59be950856317e361&#45;&gt;82833dd6bdcc45499078446f7b6a90c8</title>
<path fill="none" stroke="#7b8894" d="M541.8,-671.2C601.51,-671.2 693.05,-671.2 693.05,-671.2 693.05,-671.2 693.05,-464.7 693.05,-464.7"/>
<polygon fill="#7b8894" stroke="#7b8894" points="696.55,-464.7 693.05,-454.7 689.55,-464.7 696.55,-464.7"/>
</g>
<!-- 0db9c1b0e1ac45d59be950856317e361&#45;&gt;6de65cf8c634482aa4035f26a0a40086 -->
<g id="edge17" class="edge">
<title>0db9c1b0e1ac45d59be950856317e361&#45;&gt;6de65cf8c634482aa4035f26a0a40086</title>
<path fill="none" stroke="#9ca3af" stroke-dasharray="5,2" d="M541.75,-716.8C649.94,-716.8 895.05,-716.8 895.05,-716.8 895.05,-716.8 895.05,-478.96 895.05,-478.96"/>
<polygon fill="#9ca3af" stroke="#9ca3af" points="898.55,-478.96 895.05,-468.96 891.55,-478.96 898.55,-478.96"/>
</g>
<!-- 82833dd6bdcc45499078446f7b6a90c8&#45;&gt;6de65cf8c634482aa4035f26a0a40086 -->
<g id="edge14" class="edge">
<title>82833dd6bdcc45499078446f7b6a90c8&#45;&gt;6de65cf8c634482aa4035f26a0a40086</title>
<path fill="none" stroke="#9ca3af" stroke-dasharray="5,2" d="M743.39,-385C743.39,-385 833.3,-385 833.3,-385"/>
<polygon fill="#9ca3af" stroke="#9ca3af" points="833.3,-388.5 843.3,-385 833.3,-381.5 833.3,-388.5"/>
</g>
<!-- 038a35d7832949c3aa0ee81880b6a92e -->
<g id="node9" class="node">
<title>038a35d7832949c3aa0ee81880b6a92e</title>
<image xlink:href="D:\Projects\ecommerce-analytics\venv\Lib\site-packages\resources/aws/storage\simple-storage-service-s3.png" width="100.8px" height="100.8px" preserveAspectRatio="xMinYMin meet" x="844.65" y="-149.4"/>
<text xml:space="preserve" text-anchor="middle" x="895.05" y="-33.85" font-family="Arial Bold" font-size="13.00" fill="#2d3436" font-weight="bold">S3 &#160;processed/</text>
<text xml:space="preserve" text-anchor="middle" x="895.05" y="-18.85" font-family="Arial Bold" font-size="13.00" fill="#2d3436" font-weight="bold">quarantine/</text>
</g>
<!-- 82833dd6bdcc45499078446f7b6a90c8&#45;&gt;038a35d7832949c3aa0ee81880b6a92e -->
<g id="edge18" class="edge">
<title>82833dd6bdcc45499078446f7b6a90c8&#45;&gt;038a35d7832949c3aa0ee81880b6a92e</title>
<path fill="none" stroke="#7b8894" d="M693.05,-316.86C693.05,-232.27 693.05,-99 693.05,-99 693.05,-99 833.34,-99 833.34,-99"/>
<polygon fill="#7b8894" stroke="#7b8894" points="833.34,-102.5 843.34,-99 833.34,-95.5 833.34,-102.5"/>
</g>
<!-- 121488cd8dc3416fb981b7b9f779c87c -->
<g id="node10" class="node">
<title>121488cd8dc3416fb981b7b9f779c87c</title>
<image xlink:href="D:\Projects\ecommerce-analytics\venv\Lib\site-packages\resources/aws/analytics\glue-crawlers.png" width="100.8px" height="100.8px" preserveAspectRatio="xMinYMin meet" x="1046.45" y="-149.4"/>
<text xml:space="preserve" text-anchor="middle" x="1096.85" y="-33.25" font-family="Arial Bold" font-size="13.00" fill="#2d3436" font-weight="bold">Glue Crawlers</text>
</g>
<!-- 038a35d7832949c3aa0ee81880b6a92e&#45;&gt;121488cd8dc3416fb981b7b9f779c87c -->
<g id="edge19" class="edge">
<title>038a35d7832949c3aa0ee81880b6a92e&#45;&gt;121488cd8dc3416fb981b7b9f779c87c</title>
<path fill="none" stroke="#7b8894" d="M945.19,-99C945.19,-99 1035.1,-99 1035.1,-99"/>
<polygon fill="#7b8894" stroke="#7b8894" points="1035.1,-102.5 1045.1,-99 1035.1,-95.5 1035.1,-102.5"/>
</g>
<!-- 9bf4b81b7c9d4baa86168c80fe238d2b -->
<g id="node11" class="node">
<title>9bf4b81b7c9d4baa86168c80fe238d2b</title>
<image xlink:href="D:\Projects\ecommerce-analytics\venv\Lib\site-packages\resources/aws/analytics\athena.png" width="100.8px" height="100.8px" preserveAspectRatio="xMinYMin meet" x="1248.25" y="-149.4"/>
<text xml:space="preserve" text-anchor="middle" x="1298.65" y="-33.85" font-family="Arial Bold" font-size="13.00" fill="#2d3436" font-weight="bold">Athena</text>
<text xml:space="preserve" text-anchor="middle" x="1298.65" y="-18.85" font-family="Arial Bold" font-size="13.00" fill="#2d3436" font-weight="bold">Validation</text>
</g>
<!-- 121488cd8dc3416fb981b7b9f779c87c&#45;&gt;9bf4b81b7c9d4baa86168c80fe238d2b -->
<g id="edge20" class="edge">
<title>121488cd8dc3416fb981b7b9f779c87c&#45;&gt;9bf4b81b7c9d4baa86168c80fe238d2b</title>
<path fill="none" stroke="#7b8894" d="M1146.99,-99C1146.99,-99 1236.9,-99 1236.9,-99"/>
<polygon fill="#7b8894" stroke="#7b8894" points="1236.9,-102.5 1246.9,-99 1236.9,-95.5 1236.9,-102.5"/>
</g>
<!-- 9bf4b81b7c9d4baa86168c80fe238d2b&#45;&gt;2b7d2cfdc1db4e1cb8c35acff5e32430 -->
<g id="edge21" class="edge">
<title>9bf4b81b7c9d4baa86168c80fe238d2b&#45;&gt;2b7d2cfdc1db4e1cb8c35acff5e32430</title>
<path fill="none" stroke="#7b8894" d="M1348.79,-99C1348.79,-99 1438.7,-99 1438.7,-99"/>
<polygon fill="#7b8894" stroke="#7b8894" points="1438.7,-102.5 1448.7,-99 1438.7,-95.5 1438.7,-102.5"/>
</g>
<!-- 3f606c9096cb457ab8c7fc088d902e1e -->
<g id="node13" class="node">
<title>3f606c9096cb457ab8c7fc088d902e1e</title>
<image xlink:href="D:\Projects\ecommerce-analytics\venv\Lib\site-packages\resources/onprem/database\postgresql.png" width="100.8px" height="100.8px" preserveAspectRatio="xMinYMin meet" x="1651.85" y="-149.4"/>
<text xml:space="preserve" text-anchor="middle" x="1702.25" y="-33.85" font-family="Arial Bold" font-size="13.00" fill="#2d3436" font-weight="bold">PostgreSQL</text>
<text xml:space="preserve" text-anchor="middle" x="1702.25" y="-18.85" font-family="Arial Bold" font-size="13.00" fill="#2d3436" font-weight="bold">staging</text>
</g>
<!-- 2b7d2cfdc1db4e1cb8c35acff5e32430&#45;&gt;3f606c9096cb457ab8c7fc088d902e1e -->
<g id="edge22" class="edge">
<title>2b7d2cfdc1db4e1cb8c35acff5e32430&#45;&gt;3f606c9096cb457ab8c7fc088d902e1e</title>
<path fill="none" stroke="#7b8894" d="M1550.59,-99C1550.59,-99 1640.5,-99 1640.5,-99"/>
<polygon fill="#7b8894" stroke="#7b8894" points="1640.5,-102.5 1650.5,-99 1640.5,-95.5 1640.5,-102.5"/>
</g>
<!-- 3f606c9096cb457ab8c7fc088d902e1e&#45;&gt;55fd709420ec410aba2c3f976dd314d5 -->
<g id="edge23" class="edge">
<title>3f606c9096cb457ab8c7fc088d902e1e&#45;&gt;55fd709420ec410aba2c3f976dd314d5</title>
<path fill="none" stroke="#7b8894" d="M1752.39,-99C1752.39,-99 1842.3,-99 1842.3,-99"/>
<polygon fill="#7b8894" stroke="#7b8894" points="1842.3,-102.5 1852.3,-99 1842.3,-95.5 1842.3,-102.5"/>
</g>
<!-- 7143e06eb3954add9803830c13231c53 -->
<g id="node15" class="node">
<title>7143e06eb3954add9803830c13231c53</title>
<image xlink:href="D:/Projects/ecommerce-analytics/docs/icons/dbt.png" width="100.8px" height="93.6214px" preserveAspectRatio="xMinYMin meet" x="2055.45" y="-145.811"/>
<text xml:space="preserve" text-anchor="middle" x="2105.85" y="-33.85" font-family="Arial Bold" font-size="13.00" fill="#2d3436" font-weight="bold">dbt intermediate</text>
<text xml:space="preserve" text-anchor="middle" x="2105.85" y="-18.85" font-family="Arial Bold" font-size="13.00" fill="#2d3436" font-weight="bold">2 views</text>
</g>
<!-- 55fd709420ec410aba2c3f976dd314d5&#45;&gt;7143e06eb3954add9803830c13231c53 -->
<g id="edge24" class="edge">
<title>55fd709420ec410aba2c3f976dd314d5&#45;&gt;7143e06eb3954add9803830c13231c53</title>
<path fill="none" stroke="#7b8894" d="M1954.19,-99C1954.19,-99 2044.1,-99 2044.1,-99"/>
<polygon fill="#7b8894" stroke="#7b8894" points="2044.1,-102.5 2054.1,-99 2044.1,-95.5 2044.1,-102.5"/>
</g>
<!-- 0a73615bed2649e2a0d208923e4901b3 -->
<g id="node16" class="node">
<title>0a73615bed2649e2a0d208923e4901b3</title>
<image xlink:href="D:/Projects/ecommerce-analytics/docs/icons/dbt.png" width="100.8px" height="93.6214px" preserveAspectRatio="xMinYMin meet" x="2257.25" y="-145.811"/>
<text xml:space="preserve" text-anchor="middle" x="2307.65" y="-33.85" font-family="Arial Bold" font-size="13.00" fill="#2d3436" font-weight="bold">dbt marts</text>
<text xml:space="preserve" text-anchor="middle" x="2307.65" y="-18.85" font-family="Arial Bold" font-size="13.00" fill="#2d3436" font-weight="bold">3 tables</text>
</g>
<!-- 7143e06eb3954add9803830c13231c53&#45;&gt;0a73615bed2649e2a0d208923e4901b3 -->
<g id="edge25" class="edge">
<title>7143e06eb3954add9803830c13231c53&#45;&gt;0a73615bed2649e2a0d208923e4901b3</title>
<path fill="none" stroke="#7b8894" d="M2155.99,-99C2155.99,-99 2245.9,-99 2245.9,-99"/>
<polygon fill="#7b8894" stroke="#7b8894" points="2245.9,-102.5 2255.9,-99 2245.9,-95.5 2245.9,-102.5"/>
</g>
<!-- ea8c19e3481541dbb43d796453a068bc -->
<g id="node17" class="node">
<title>ea8c19e3481541dbb43d796453a068bc</title>
<image xlink:href="D:/Projects/ecommerce-analytics/docs/icons/powerbi.png" width="100.8px" height="100.8px" preserveAspectRatio="xMinYMin meet" x="2465.15" y="-149.4"/>
<text xml:space="preserve" text-anchor="middle" x="2515.55" y="-33.25" font-family="Arial Bold" font-size="13.00" fill="#2d3436" font-weight="bold">Power BI</text>
</g>
<!-- 0a73615bed2649e2a0d208923e4901b3&#45;&gt;ea8c19e3481541dbb43d796453a068bc -->
<g id="edge26" class="edge">
<title>0a73615bed2649e2a0d208923e4901b3&#45;&gt;ea8c19e3481541dbb43d796453a068bc</title>
<path fill="none" stroke="#7b8894" d="M2357.98,-99C2357.98,-99 2453.81,-99 2453.81,-99"/>
<polygon fill="#7b8894" stroke="#7b8894" points="2453.81,-102.5 2463.81,-99 2453.81,-95.5 2453.81,-102.5"/>
</g>
</g>
</svg>
